<svg xmlns="http://www.w3.org/2000/svg" width="1200" height="630" viewBox="0 0 1200 630" role="img" aria-labelledby="title desc">
  <title id="title">Vesper read-only Trading 212 MCP for Codex</title>
  <desc id="desc">A minimal dashboard preview with a portfolio chart and buy and sell markers.</desc>
  <rect width="1200" height="630" fill="#f5f5f7"/>
  <rect x="64" y="64" width="1072" height="502" rx="18" fill="#ffffff" stroke="#d9d9de"/>
  <circle cx="112" cy="112" r="18" fill="#1d1d1f"/>
  <text x="108" y="119" text-anchor="middle" fill="#ffffff" font-family="Arial, sans-serif" font-size="18" font-weight="700">V2</text>
  <text x="150" y="107" fill="#1d1d1f" font-family="Arial, sans-serif" font-size="24" font-weight="700">Vesper</text>
  <text x="150" y="132" fill="#6e6e73" font-family="Arial, sans-serif" font-size="14">Read-only Trading 212 intelligence for Codex</text>
  <rect x="100" y="184" width="310" height="92" rx="10" fill="#f5f5f7"/>
  <text x="122" y="216" fill="#6e6e73" font-family="Arial, sans-serif" font-size="14">Portfolio</text>
  <text x="122" y="250" fill="#1d1d1f" font-family="Arial, sans-serif" font-size="28" font-weight="700">Daily brief</text>
  <rect x="430" y="184" width="310" height="92" rx="10" fill="#f5f5f7"/>
  <text x="452" y="216" fill="#6e6e73" font-family="Arial, sans-serif" font-size="14">Risk review</text>
  <text x="452" y="250" fill="#1d1d1f" font-family="Arial, sans-serif" font-size="28" font-weight="700">Concentration</text>
  <rect x="760" y="184" width="310" height="92" rx="10" fill="#f5f5f7"/>
  <text x="782" y="216" fill="#6e6e73" font-family="Arial, sans-serif" font-size="14">Order history</text>
  <text x="782" y="250" fill="#1d1d1f" font-family="Arial, sans-serif" font-size="28" font-weight="700">Buy / Sell markers</text>
  <path d="M100 475 C180 440 220 452 290 398 C360 344 420 378 492 326 C564 274 620 308 690 254 C760 200 830 230 900 202 C970 174 1030 176 1080 146" fill="none" stroke="#1d1d1f" stroke-width="5" stroke-linecap="round"/>
  <circle cx="338" cy="372" r="14" fill="#16834a"/>
  <text x="338" y="377" text-anchor="middle" fill="#ffffff" font-family="Arial, sans-serif" font-size="12" font-weight="700">B</text>
  <circle cx="790" cy="217" r="14" fill="#c43a34"/>
  <text x="790" y="222" text-anchor="middle" fill="#ffffff" font-family="Arial, sans-serif" font-size="12" font-weight="700">S</text>
</svg>
